<svg id="Layer_1" data-name="Layer 1" xmlns="http://www.w3.org/2000/svg" viewBox="0 0 1200 300"><defs><style>.cls-1{fill:#9896e2;}.cls-2{fill:#6458f5;}</style></defs><path class="cls-1" d="M137.25,203.67q0,34.13-17.19,51.81T67.75,273.16a141.17,141.17,0,0,1-31.65-3.58,71.7,71.7,0,0,1-28.69-14l20.52-30.66a77.5,77.5,0,0,0,18.18,11.37A51.24,51.24,0,0,0,67,240.52q17.07,0,25.1-8.29t8-21.14V199.46h-.49a34.86,34.86,0,0,1-16,12.24,51,51,0,0,1-17.93,3.59,61.74,61.74,0,0,1-24.23-4.58,53.72,53.72,0,0,1-18.67-12.86,57.12,57.12,0,0,1-12-19.66,71.37,71.37,0,0,1-4.2-25A72.17,72.17,0,0,1,10.5,130a63.4,63.4,0,0,1,10.88-20A54.71,54.71,0,0,1,38.57,96a48.84,48.84,0,0,1,23-5.32,56.13,56.13,0,0,1,26.22,6.19,42.83,42.83,0,0,1,8.9,6.06,38.24,38.24,0,0,1,5.93,6.55h.5V93.61h34.13ZM43.76,153a29,29,0,0,0,8.54,20.65,32.5,32.5,0,0,0,9.39,6.55,28.77,28.77,0,0,0,23.37,0,32,32,0,0,0,9.53-6.55,29.19,29.19,0,0,0,0-41.3,32.19,32.19,0,0,0-9.53-6.56,28.87,28.87,0,0,0-23.37,0,32.73,32.73,0,0,0-9.39,6.56A29,29,0,0,0,43.76,153Z"/><path class="cls-1" d="M280.69,193a59.16,59.16,0,0,1-22.51,17.56A67.46,67.46,0,0,1,230,216.77a75.66,75.66,0,0,1-26.09-4.45,62.56,62.56,0,0,1-21.27-12.73,59.78,59.78,0,0,1-14.22-19.91,62.87,62.87,0,0,1-5.2-26,62.87,62.87,0,0,1,5.2-26,59.78,59.78,0,0,1,14.22-19.91A62.56,62.56,0,0,1,203.9,95.1,75.66,75.66,0,0,1,230,90.64a59.33,59.33,0,0,1,23.37,4.46,48.64,48.64,0,0,1,17.81,12.73,58.15,58.15,0,0,1,11.25,19.91,80.49,80.49,0,0,1,4,26v11.62H200.31A29.31,29.31,0,0,0,210,182.27q7.41,6.31,18.3,6.31,9.13,0,15.45-4.08a41.39,41.39,0,0,0,11-10.51Zm-31.41-52.92A21.52,21.52,0,0,0,243.1,124q-6.43-6.68-16.57-6.68a27.85,27.85,0,0,0-10.89,2,27.23,27.23,0,0,0-8,5.07,22.26,22.26,0,0,0-5.2,7.18,23.57,23.57,0,0,0-2.1,8.53Z"/><path class="cls-1" d="M390.74,123.29H358.09v40.06a75.31,75.31,0,0,0,.5,9,18.28,18.28,0,0,0,2.22,7.05,11.26,11.26,0,0,0,5.32,4.57,23.45,23.45,0,0,0,9.52,1.61,62.53,62.53,0,0,0,7.79-.62,13.22,13.22,0,0,0,7.3-2.84v30.91a55.57,55.57,0,0,1-12.86,3,117.33,117.33,0,0,1-13.11.74,71.69,71.69,0,0,1-17.31-2,39.42,39.42,0,0,1-13.85-6.31,29.45,29.45,0,0,1-9.27-11.25Q321,190.31,321,180.42V123.29H297.25V93.61H321V58h37.09V93.61h32.65Z"/><path class="cls-2" d="M415.72,38.71H533.19V74.32H454.3v35.62h73v35.61h-73v68.26H415.72Z"/><path class="cls-2" d="M551.74,153.71a63,63,0,0,1,5.19-26,59.78,59.78,0,0,1,14.22-19.91A62.75,62.75,0,0,1,592.42,95.1a78.54,78.54,0,0,1,52.18,0,62.75,62.75,0,0,1,21.27,12.73,59.78,59.78,0,0,1,14.22,19.91,63,63,0,0,1,5.2,26,63,63,0,0,1-5.2,26,59.78,59.78,0,0,1-14.22,19.91,62.75,62.75,0,0,1-21.27,12.73,78.71,78.71,0,0,1-52.18,0,62.75,62.75,0,0,1-21.27-12.73,59.78,59.78,0,0,1-14.22-19.91A63,63,0,0,1,551.74,153.71Zm37.09,0q0,13.6,7.79,22t21.89,8.41q14.1,0,21.89-8.41t7.79-22q0-13.61-7.79-22t-21.89-8.41q-14.1,0-21.89,8.41T588.83,153.71Z"/><path class="cls-2" d="M702.59,153.71a62.87,62.87,0,0,1,5.2-26A59.78,59.78,0,0,1,722,107.83,62.66,62.66,0,0,1,743.28,95.1a78.54,78.54,0,0,1,52.18,0,62.75,62.75,0,0,1,21.27,12.73A59.78,59.78,0,0,1,831,127.74a63,63,0,0,1,5.19,26,63,63,0,0,1-5.19,26,59.78,59.78,0,0,1-14.22,19.91,62.75,62.75,0,0,1-21.27,12.73,78.71,78.71,0,0,1-52.18,0A62.66,62.66,0,0,1,722,199.59a59.78,59.78,0,0,1-14.22-19.91A62.87,62.87,0,0,1,702.59,153.71Zm37.1,0q0,13.6,7.79,22t21.89,8.41q14.1,0,21.89-8.41t7.79-22q0-13.61-7.79-22t-21.89-8.41q-14.1,0-21.89,8.41T739.69,153.71Z"/><path class="cls-2" d="M984,213.81H949.9V198h-.49a40.7,40.7,0,0,1-5.81,6.55,43.79,43.79,0,0,1-8.41,6.06A50.94,50.94,0,0,1,924.55,215a41.89,41.89,0,0,1-12,1.73,62,62,0,0,1-24.24-4.57,54.09,54.09,0,0,1-18.67-12.86,57.35,57.35,0,0,1-12-19.66,71.37,71.37,0,0,1-4.21-25,75.57,75.57,0,0,1,3.84-24.11,66.26,66.26,0,0,1,10.88-20.41A53.2,53.2,0,0,1,885.36,96a48.79,48.79,0,0,1,23-5.32A63.81,63.81,0,0,1,930,94.23a34.66,34.66,0,0,1,16.44,12.24h.5V26.84H984Zm-34.13-60.1q0-13.61-7.79-22t-21.88-8.41q-14.1,0-21.89,8.41t-7.79,22q0,13.6,7.79,22t21.89,8.41q14.09,0,21.88-8.41T949.9,153.71Z"/><path class="cls-1" d="M1053.16,28.14l30.74,6.32-6.32,32.18-12.93-2.87,1.72-8.62s-11.78,5.75-19.82,23.27-13.8,28.56-11.14,51.67,11,52.65,43.94,71.6l-6.82,12.12s-45.29-17.37-51.34-81.82c-5.86-62.51,38.46-89.4,38.46-89.4L1049,40.69Z"/><path class="cls-1" d="M1160.84,213.81l-30.75-6.32,6.32-32.19,12.93,2.88-1.72,8.62s11.78-5.75,19.83-23.28,13.79-28.56,11.14-51.66-11-52.66-43.94-71.6l6.81-12.12s45.29,17.37,51.34,81.82c5.86,62.51-38.46,89.4-38.46,89.4l10.61,1.9Z"/></svg>