<svg id="Layer_1" data-name="Layer 1" xmlns="http://www.w3.org/2000/svg" viewBox="0 0 800 1200"><defs><style>.cls-1{fill:#c6efa5;}.cls-10,.cls-11,.cls-12,.cls-2,.cls-21,.cls-4,.cls-5,.cls-6,.cls-8{fill:none;stroke-miterlimit:10;}.cls-2,.cls-5{stroke:#6bad63;}.cls-2{stroke-width:2px;}.cls-3{fill:#6bad63;}.cls-10,.cls-11,.cls-12,.cls-4,.cls-6,.cls-8{stroke:#c6efa5;}.cls-4{stroke-width:2.63px;}.cls-5{stroke-width:1.46px;}.cls-10,.cls-11,.cls-12,.cls-6{stroke-width:2.22px;}.cls-7{fill:#6c8c79;}.cls-8{stroke-width:1.02px;}.cls-9{fill:#f4d556;}.cls-10{opacity:0.6;}.cls-11{opacity:0.3;}.cls-12{opacity:0.4;}.cls-13{fill:#c66d46;}.cls-14{fill:#606060;}.cls-15{fill:#efefef;}.cls-16{fill:#cc8160;}.cls-17{fill:#8e2de2;}.cls-18{fill:#8e57e2;}.cls-19{fill:#ffe36e;}.cls-20{fill:#ffac83;}.cls-21{stroke:#fff;stroke-width:2.47px;}.cls-22{fill:#ce3232;}.cls-23{fill:#ff5f5f;}</style></defs><path class="cls-1" d="M302.91,1105.09C213,1082.43,65.2,948.65,133.69,816s108.2-53.28,132.63-119,46.91-111.09,161.2-65.75S635.29,709.76,683.81,703s90.52,76.62,24.39,156,37.39,18.22-24.07,120.25S626.82,1186.71,302.91,1105.09Z"/><circle class="cls-2" cx="178.6" cy="843.41" r="4.62"/><circle class="cls-2" cx="219.45" cy="769.7" r="4.62"/><circle class="cls-2" cx="291.93" cy="735.87" r="4.62"/><circle class="cls-2" cx="316.56" cy="680.79" r="4.62"/><circle class="cls-2" cx="360.05" cy="727.87" r="4.62"/><circle class="cls-2" cx="353.07" cy="781.85" r="4.62"/><circle class="cls-2" cx="692.3" cy="735.87" r="4.62"/><circle class="cls-2" cx="709.68" cy="808.84" r="4.62"/><circle class="cls-2" cx="660.09" cy="860.77" r="4.62"/><circle class="cls-2" cx="599.29" cy="930.19" r="4.62"/><circle class="cls-2" cx="640.12" cy="1012.25" r="4.62"/><circle class="cls-2" cx="669.33" cy="933.07" r="4.62"/><circle class="cls-2" cx="652.97" cy="777.23" r="4.62"/><circle class="cls-2" cx="251.07" cy="827.66" r="4.62"/><circle class="cls-2" cx="388.55" cy="816.19" r="4.62"/><path class="cls-3" d="M289.86,1067.83S106,943.06,122.84,941.72a211.3,211.3,0,0,1,33.53.37s-84.89-74.91-71-77.21,38.81,12.9,19.55-9.23S22.4,770.4,39.17,771.9c8.59.77,11.13-2.17,10.36-7C47.86,754.3,31.81,734,25.64,724.08c-29.4-47,11.72-18,18.34-8.55s26.87,27,36.24,28.89-2.09-15.21.28-27.19c1.59-8,13.64-4.28,68.92,109.42,0,0,15.1,18,19-19.25s58.41,89.35,64,101.32,15.06-36.18,23.24-27.5,50.94,148.22,66.33,171.64,89.65,101.21,89.65,101.21l-12.71,13.35S326.7,1087,289.86,1067.83Z"/><path class="cls-4" d="M315.94,1069.58s-86.53-91.66-145.79-170.69S74.18,763,35.5,719.34"/><ellipse class="cls-5" cx="186.35" cy="960.14" rx="4.98" ry="4.64" transform="translate(-388.45 168.81) rotate(-25.01)"/><ellipse class="cls-5" cx="259.74" cy="949.13" rx="4.98" ry="4.64" transform="translate(-376.91 198.81) rotate(-25.01)"/><ellipse class="cls-5" cx="200.31" cy="902.06" rx="4.98" ry="4.64" transform="translate(-362.59 169.27) rotate(-25.01)"/><ellipse class="cls-5" cx="251.62" cy="1023.8" rx="4.98" ry="4.64" transform="translate(-409.25 202.38) rotate(-25.01)"/><ellipse class="cls-5" cx="143.63" cy="892.11" rx="4.98" ry="4.64" transform="translate(-363.7 144.37) rotate(-25.01)"/><ellipse class="cls-5" cx="116.62" cy="798.89" rx="4.98" ry="4.64" transform="translate(-326.82 124.21) rotate(-25.01)"/><ellipse class="cls-5" cx="65.35" cy="783.32" rx="4.98" ry="4.64" transform="translate(-325.04 101.08) rotate(-25.01)"/><path class="cls-3" d="M470,978.1s5.43-71.94-6-109.17-17.05-109.45,8.93-88.76,24.36,40,23-13.52-17.79-72.59-1.77-113.74,40.59,97.69,49.3,37.66,11.28-110.61,37.9-136.9S614.7,608.29,611,650.18s-29.4,86-8,67.35,32.89-40.3,53.46-42.09-7.23,55-42.13,103.49-12,44.43,11.44,37.23,36.32,29.77-87.92,141.06Z"/><path class="cls-6" d="M498.82,958.8s56.44-97.14,86.6-353.9"/><path class="cls-7" d="M518.85,1145.89s21.82-25,37.7-33.21,41.35-29.68,26.21-31.53-21,4.91-3-11.89,29.52-17.57,37.83-36.08-45.08,18.18-28.22-4S622,989.83,622,972.63,593.36,979.3,580.84,994s-18.71,37.35-19.5,24.32,2.6-23.76-3.44-31.08-15.7,20.1-20.33,47.15-10.69,18.25-15.88,8.25-21.46-2.3-17.89,74.27Z"/><path class="cls-8" d="M515.87,1130.21s13.63-49.79,88-142.41"/><path class="cls-9" d="M680.06,1150.3c9.8-13.75,11.81-30,6.18-41a3.36,3.36,0,0,0,.34-.41c2.11-3,.18-8-4.32-11.15s-9.68-3.39-11.85-.56c-8-4.72-30.31,1.29-40.41,15.47-8.83,12.39-11.79,25.94-7.79,33a21.06,21.06,0,0,0,33.22,22.94C664.36,1166,673.36,1159.7,680.06,1150.3Z"/><path class="cls-3" d="M682.26,1097.74c5.24-7.8,14.86-3.4,21.19-1.75C703.45,1096,675.26,1108.16,682.26,1097.74Z"/><path class="cls-3" d="M675.9,1098.53c-4.16-2.8-1.81-7.94-.93-11.32a17.17,17.17,0,0,1,3.68,5.84C679.78,1096.69,678.93,1100.56,675.9,1098.53Z"/><path class="cls-7" d="M398.66,867.21s-10.91-256.23-31-351.48S246.19,259.3,305.9,231.49c29.3-13.65,44.76,20.56,43.23,50C347.65,310,462.68,686.66,433.92,867.21S398.66,867.21,398.66,867.21Z"/><path class="cls-7" d="M419.07,935.51s27.42-255,21.79-352.18S359,311.65,422.15,293.06c31-9.12,41.19,27,35.29,55.89-5.71,27.94,51.86,417.57-3.5,591.82S419.07,935.51,419.07,935.51Z"/><path class="cls-3" d="M443.5,848.57s41.92-253,41.84-350.35-66.28-275.91-2.13-290.87c31.48-7.34,39.59,29.31,32.05,57.81C508,292.73,543.23,685,478,855.81S443.5,848.57,443.5,848.57Z"/><path class="cls-7" d="M435.35,961.17s72.82-231.57,88.48-321.68-6-259.52,45.37-269.37c25.18-4.82,25.43,29.61,15.09,55.51C574.27,450.7,537.78,816,460.49,970S435.35,961.17,435.35,961.17Z"/><path class="cls-3" d="M427.91,996.62S396,756,372.14,667.69,257.05,435,299.4,404.4c20.78-15,35.56,16.08,37.14,43.93,1.52,26.95,122.85,373.43,117.9,545.69S427.91,996.62,427.91,996.62Z"/><path class="cls-3" d="M421,847.41s-5.68-256.22-16.14-351.48-63.33-256.43-32.2-284.24c15.27-13.65,23.33,20.56,22.53,50-.77,28.48,59.19,405.18,44.2,585.72S421,847.41,421,847.41Z"/><path class="cls-10" d="M487.89,249.75c-.29,29.41,2,84.3,8.69,164.68s-2.76,254-22.7,390.15"/><path class="cls-11" d="M315.22,427.56s-1.46,66.67,47.7,175.33,55.22,283.23,55.22,283.23"/><path class="cls-11" d="M436.28,329.8s-14.6,52.24,5.47,167.86,23.5,237.23,20.93,265.49"/><path class="cls-11" d="M568.88,400.48s-8.57,26.1-16.27,90.33S532.91,704.92,509.78,770s-55.84,170.76-55.84,170.76"/><path class="cls-11" d="M321.37,253.58c-1.71,22.26,8.56,81.36,25.69,125s49.81,177.31,50.17,232.09"/><path class="cls-12" d="M378.92,242s-4.55,68.28,6.83,99,56.68,325.83,45.41,394.85"/><path class="cls-9" d="M353.72,813.39c-28.14-3.37-36,9.18-45.94-17.44l-2,.64-.28-.63-5.13,2.38L281,804.6l.82,2.34-1.84.85c10.82,26.26-3.5,22.42-21.86,44s-9.56,33,3,64.3,59.24,128.68,59.24,128.68c7.29,12.63,47-4.16,75.26-17,23.7-8.93,46-19.87,43.55-30.55,0,0-31.91-103.19-44-134.67S381.85,816.76,353.72,813.39Z"/><path class="cls-13" d="M292.46,770.09l-20.78,9.2a4.52,4.52,0,0,0-2.29,6l8.55,19.31a4.41,4.41,0,0,0,.58.93,2.89,2.89,0,0,0,.21,1.14c1.42,3.2,9.12,2.91,17.19-.67s13.46-9.07,12-12.28a2.82,2.82,0,0,0-.7-.92,4.34,4.34,0,0,0-.3-1l-8.56-19.32A4.52,4.52,0,0,0,292.46,770.09Z"/><path class="cls-13" d="M310.44,802.64c-1.39,3.47-6.53,7.75-13.4,10.8-5.77,2.55-11.37,3.61-15.09,3.12.12.19.22.39.36.57a2.84,2.84,0,0,0,.21,1.13c1.42,3.21,9.12,2.91,17.19-.66s13.46-9.08,12-12.28a2.72,2.72,0,0,0-.7-.92,4.55,4.55,0,0,0-.3-1.06Z"/><path class="cls-14" d="M277.9,917.58c-2.56-11.24,24.09,3.39,64.42-17.8s43.65-28.64,45.15-26,28.07,66.64,23.75,74.74S328.68,997.55,304,982.08C304,982.08,281.53,933.46,277.9,917.58Z"/><path class="cls-15" d="M277.88,915.54c-2.57-11.24,22.55.67,64.42-17.8,41.69-18.39,42.05-31.4,45.14-26,1.5,2.59,28.07,66.64,23.76,74.74S328.66,995.51,303.93,980C303.93,980,281.51,931.42,277.88,915.54Z"/><path class="cls-16" d="M368.94,909.65s-3.12,23.27-14.06,27.88l-3.07,1.69.1-4.37s4.1.25,7.65-6.21,7.86-21.84,7.86-21.84S370.81,900.88,368.94,909.65Z"/><circle class="cls-17" cx="337.18" cy="963.29" r="6.53"/><circle class="cls-17" cx="342.81" cy="952.51" r="6.53"/><circle class="cls-18" cx="349.9" cy="962.01" r="6.53"/><circle class="cls-17" cx="355.53" cy="951.22" r="6.53"/><circle class="cls-17" cx="361.2" cy="955.48" r="6.53"/><circle class="cls-17" cx="366.83" cy="944.7" r="6.53"/><circle class="cls-18" cx="373.25" cy="937.32" r="6.53"/><circle class="cls-17" cx="365.28" cy="928.95" r="6.53"/><circle class="cls-18" cx="354.42" cy="946.51" r="6.53"/><circle class="cls-17" cx="360.05" cy="935.73" r="6.53"/><circle class="cls-17" cx="347.44" cy="939.24" r="6.53"/><circle class="cls-18" cx="340.88" cy="940.93" r="6.53"/><circle class="cls-17" cx="342.68" cy="928.96" r="6.53"/><circle class="cls-18" cx="353.07" cy="928.45" r="6.53"/><ellipse class="cls-7" cx="375.29" cy="916.25" rx="5.77" ry="1.25" transform="translate(-407.62 310.1) rotate(-29.98)"/><ellipse class="cls-7" cx="361.58" cy="913.36" rx="1.25" ry="3.25" transform="translate(-258.41 151.4) rotate(-17.54)"/><path class="cls-19" d="M622,1131.63c0-16.88-7.79-31.29-18.75-37a4.73,4.73,0,0,0,0-.53c0-3.64-4.48-6.58-10-6.58s-9.86,2.86-10,6.42c-9.29.83-23.93,18.65-23.93,36.06,0,15.21,5.45,28,12.8,31.38a21.06,21.06,0,0,0,40.36-.61C618.37,1153.57,622,1143.18,622,1131.63Z"/><path class="cls-1" d="M593.31,1087.55c-.26-9.39,10.12-11.39,16.23-13.71C609.54,1073.84,593.65,1100.1,593.31,1087.55Z"/><path class="cls-1" d="M588.59,1091.89c-5,.13-6.09-5.42-7.33-8.68a17.17,17.17,0,0,1,6.39,2.62C590.68,1088.14,592.24,1091.78,588.59,1091.89Z"/><polygon class="cls-20" points="358.09 959.97 405.32 891.37 410.56 860.77 563.01 886.86 558.5 913.23 585.15 998.84 551.07 1197.9 324.02 1159.03 358.09 959.97"/><polygon class="cls-15" points="405.32 891.37 443.83 976.58 410.08 1173.77 324.02 1159.03 358.09 959.97 405.32 891.37"/><line class="cls-21" x1="443.83" y1="976.58" x2="585.15" y2="998.84"/><path class="cls-21" d="M451.25,1066.77c2.7-2.29,1.32,5.79-.92,26.5,0,0,2.38-22.38,7.29-25.58s10.25.18,8.13,10.47c-.25.95-.73-3.1,6.36-9.4,3.52-3.13,6.74-.71,7.62,5.35s-1.19,15.21-2.39,22.7"/><path class="cls-21" d="M483.39,1096.12s3.1,2.82,6.61-5.36,4.81-18.61,5.26-19.49-2.1,13-1.72,21c.17,3.72.51,6.33,4.82,5.56"/><path class="cls-21" d="M495,1097.55s4.76,4.81,9.93-8.88,6.94-31.18,7.61-32.66-5.16,20.61-4.43,34.16c.33,6.24,1,11,7.54,9.77"/><path class="cls-21" d="M512.32,1099.64s4.76,4.81,9.92-8.87,7-31.19,7.62-32.67"/><path class="cls-21" d="M525.21,1081.3c5.91-4.49,12.65-4.14,9.11.74s-10.07,5.2-10.07,5.2,2.25,13,8.06,15c7.12,2.49,12-1.35,15.62-5.63"/><circle class="cls-21" cx="496.9" cy="1058.88" r="2.99"/><path class="cls-21" d="M503.91,938.5s.43,3.31,3,3.35,2.87-3.09,2.87-3.09"/><path class="cls-21" d="M480,919.32a10.72,10.72,0,0,0,10,7.24c8.08.48,8.59-5.79,8.59-5.79"/><path class="cls-21" d="M513,921.94a10.74,10.74,0,0,0,10,7.24c8.08.48,8.6-5.79,8.6-5.79"/><path class="cls-7" d="M184.59,1103.3s-7-39.43,15.76-58.35C200.35,1045,211.46,1082,184.59,1103.3Z"/><path class="cls-22" d="M197.36,1086.69c12.51-28.26,41.3-14.57,49.81,7.61s.86,83.9-42.83,81.32c-10.45-5-7.61-.1-16.49,3.14s-48.8-9.88-53.93-67.36c-4.18-46.7,43.2-27.94,52.62-18C190.18,1097.19,194.54,1093.07,197.36,1086.69Z"/><path class="cls-7" d="M269.84,1096.38s8.75-39.07,37-47.78C306.86,1048.6,302.83,1087.08,269.84,1096.38Z"/><path class="cls-23" d="M288,1086c22.42-21.26,43.72,2.46,43,26.2s-31.52,77.77-70.85,58.56c-7.7-8.68-7-3-16.43-3.46s-41.23-27.91-23.83-82.93c14.14-44.71,50.63-9.15,55.51,3.62C277.35,1092.89,283,1090.77,288,1086Z"/></svg>