<svg id="Layer_1" data-name="Layer 1" xmlns="http://www.w3.org/2000/svg" viewBox="0 0 800 1200"><defs><style>.cls-1{fill:#efefef;}.cls-17,.cls-19,.cls-2,.cls-5,.cls-7,.cls-8{fill:none;}.cls-17,.cls-2,.cls-5{stroke:#6bad63;}.cls-11,.cls-17,.cls-19,.cls-2,.cls-5,.cls-7,.cls-8{stroke-miterlimit:10;}.cls-2{stroke-width:2px;}.cls-3{fill:#e5906a;}.cls-4{fill:#c6efa5;}.cls-5{stroke-width:1.41px;}.cls-6{fill:#6bad63;}.cls-7,.cls-8{stroke:#c6efa5;}.cls-7{stroke-width:2.91px;}.cls-8{stroke-width:2.13px;}.cls-9{fill:#6c8c79;}.cls-10{fill:#ffe36e;}.cls-11{fill:#fffecf;stroke:#665151;stroke-width:0.66px;}.cls-12{fill:#f4d556;}.cls-13{fill:#665151;}.cls-14{fill:#ffeaae;}.cls-15{fill:#ff5f5f;}.cls-16{fill:#ce3232;}.cls-17,.cls-19{stroke-width:1.13px;}.cls-18{fill:#ffac83;}.cls-19{stroke:#fff;}.cls-20{fill:#fff;}</style></defs><path class="cls-1" d="M494.45,1146.36c89.94-22.66,237.71-156.44,169.22-289.07S555.47,804,531,738.26s-46.91-111.09-161.2-65.75S162.07,751,113.55,744.23,23,820.85,89.15,900.29s-37.38,18.22,24.08,120.24S170.54,1228,494.45,1146.36Z"/><circle class="cls-2" cx="653.39" cy="919.39" r="4.62"/><circle class="cls-2" cx="586.03" cy="965.48" r="4.62"/><circle class="cls-2" cx="648.21" cy="987.12" r="4.62"/><circle class="cls-2" cx="593.84" cy="1033.8" r="4.62"/><circle class="cls-2" cx="116.39" cy="777.98" r="4.62"/><circle class="cls-2" cx="99.01" cy="850.95" r="4.62"/><circle class="cls-2" cx="148.6" cy="902.88" r="4.62"/><circle class="cls-2" cx="209.39" cy="972.3" r="4.62"/><circle class="cls-2" cx="168.56" cy="1054.36" r="4.62"/><circle class="cls-2" cx="139.36" cy="975.18" r="4.62"/><circle class="cls-2" cx="155.72" cy="819.34" r="4.62"/><circle class="cls-2" cx="564.86" cy="1091.06" r="4.62"/><polygon class="cls-3" points="215.48 982.5 423.46 957.83 542.41 969.74 422.04 994.04 215.48 982.5"/><path class="cls-4" d="M514.37,979.18S694,856.86,678.2,855.53a190.74,190.74,0,0,0-31.55.32s83.86-73.47,71-75.74-37.19,12.63-17.88-9.09S781.88,687.4,766,688.86c-8.11.74-10.35-2.15-9.36-6.92,2.14-10.38,18.33-30.34,24.66-40,30.18-46.16-10.05-17.65-16.78-8.42S737.82,660,728.9,661.83s2.8-14.94,1.21-26.71c-1.06-7.82-12.59-4.22-70.7,107.38,0,0-15.16,17.61-16.77-18.92S582.9,811.25,577,823s-12.21-35.54-20.36-27S500.75,941.47,485,964.45s-89.74,99.29-89.74,99.29l11.23,13.13S478.7,998,514.37,979.18Z"/><path class="cls-5" d="M489.76,980.88S576.05,891,636,813.42,733.59,680.05,772.3,637.24"/><circle class="cls-5" cx="617.5" cy="873.54" r="4.62"/><circle class="cls-5" cx="549.09" cy="862.65" r="4.62"/><circle class="cls-5" cx="607.5" cy="816.49" r="4.62"/><circle class="cls-5" cx="552.7" cy="935.99" r="4.62"/><circle class="cls-5" cx="661.33" cy="806.79" r="4.62"/><circle class="cls-5" cx="691.75" cy="715.28" r="4.62"/><circle class="cls-5" cx="740.79" cy="700.03" r="4.62"/><path class="cls-6" d="M349.49,1078.3s7.12-94.36-7.89-143.19-22.36-143.57,11.71-116.43,32,52.45,30.19-17.73-23.34-95.23-2.32-149.2,53.25,128.14,64.67,49.41,14.79-145.09,49.71-179.58,43.8,71.65,38.92,126.6S495.92,761,524,736.51s43.14-52.85,70.13-55.21-9.48,72.2-55.26,135.76-15.74,58.28,15,48.83,47.64,39.05-115.34,185Z"/><path class="cls-7" d="M387.36,1053s74-127.41,113.59-464.21"/><line class="cls-8" x1="281.22" y1="554.44" x2="282.42" y2="591.15"/><path class="cls-9" d="M294.41,948.72C271.09,858.59-53,419.77,12.21,457.83s139,144.89,139,144.89S89.34,481,58.53,393.08s-22.59-98.88,11.75-69,55.25,72.3,73,104.19,1.08-6,7-113.18,19.37-178.66,45.38-49.82S252,586.59,252,586.59s-14.64-148.53-10.49-232.38,27.47-82.07,38.15-45.28S303.45,518.6,303.45,518.6s13.75-41,35.06-65.72,38.73,25.39,6.65,464.52C349.1,989.84,361,1040.54,361,1040.54l-31.54,9.16Z"/><line class="cls-8" x1="330.8" y1="665.05" x2="326.61" y2="701.54"/><line class="cls-8" x1="343.21" y1="471.82" x2="339.02" y2="508.32"/><line class="cls-8" x1="336.09" y1="557.93" x2="331.89" y2="594.43"/><line class="cls-8" x1="319.24" y1="772.9" x2="319.51" y2="809.63"/><line class="cls-8" x1="317.66" y1="892.17" x2="323.66" y2="928.42"/><line class="cls-8" x1="331.24" y1="974.7" x2="337.24" y2="1010.94"/><line class="cls-8" x1="127.2" y1="617.7" x2="150.29" y2="646.27"/><line class="cls-8" x1="64.92" y1="531.63" x2="88.01" y2="560.21"/><line class="cls-8" x1="191.7" y1="717.61" x2="211.14" y2="748.77"/><line class="cls-8" x1="256.92" y1="817.48" x2="271.27" y2="851.3"/><line class="cls-8" x1="82.33" y1="383.94" x2="100.96" y2="415.6"/><line class="cls-8" x1="137.22" y1="502.6" x2="151.86" y2="536.29"/><line class="cls-8" x1="200.54" y1="631.68" x2="215.16" y2="665.38"/><line class="cls-8" x1="266.94" y1="750.39" x2="275.63" y2="786.09"/><line class="cls-8" x1="171.05" y1="269.59" x2="174.7" y2="306.15"/><line class="cls-8" x1="191.91" y1="411.85" x2="195.55" y2="448.4"/><line class="cls-8" x1="210.14" y1="528.11" x2="217.26" y2="564.15"/><line class="cls-8" x1="255.42" y1="648.83" x2="262.54" y2="684.87"/><line class="cls-8" x1="271.1" y1="452.33" x2="272.3" y2="489.05"/><line class="cls-8" x1="260.98" y1="350.23" x2="262.17" y2="386.95"/><path class="cls-10" d="M477.19,871.94c-29.05-3.48-53.48,1-54.57,10.11L410.3,984.77l2.09.26c5.56,7.59,25.15,15,49.08,17.87s44.72.31,51.92-5.76l2.1.26,12.32-102.73C528.9,885.61,506.23,875.43,477.19,871.94Z"/><ellipse class="cls-11" cx="475.22" cy="888.36" rx="16.94" ry="52.97" transform="translate(-463.44 1254.36) rotate(-83.16)"/><ellipse class="cls-12" cx="476.12" cy="880.85" rx="16.94" ry="52.97" transform="translate(-455.19 1248.64) rotate(-83.16)"/><path class="cls-13" d="M414.61,948.81c-1.11,9.29,21.32,21.43,50.36,24.91s53.72-3,54.83-12.29l-4.41,36.8s-21.17,8.6-53.92,4.67c-28.46-3.41-48.66-13.61-51.17-18.13Z"/><path class="cls-13" d="M422.76,880.85c-1.11,9.29,21.53,19.65,50.58,23.13s53.5-1.21,54.62-10.5l-3,25s-21.16,8.61-53.91,4.68c-28.47-3.41-48.67-13.61-51.18-18.13Z"/><path class="cls-13" d="M459.54,941.09c-.37-6.41,3.11-7.82,5.81-6.68s5.06,5.13,9.52,3.68c5.25-1.72,2.4-6.19,8.73-7s5.42,16.6-8.4,18C464.08,950.28,459.81,945.75,459.54,941.09Z"/><path class="cls-13" d="M493.72,957.34c.06-4,2.28-4.68,3.9-3.78s2.91,3.55,5.74,3c3.33-.72,1.77-3.71,5.73-3.77s2.61,10.75-6,10.7C496.12,963.4,493.68,960.28,493.72,957.34Z"/><path class="cls-13" d="M471.68,968.27c-1.24-1.51-.54-2.8.39-3.24s2.3-.07,3.26-1.64c1.13-1.84-.44-2.2,1.15-4.1s4.43,2.71.91,6.79C474.55,969.36,472.58,969.37,471.68,968.27Z"/><path class="cls-13" d="M501.06,944.08c-1.25-1.51-.55-2.8.39-3.24s2.3-.07,3.26-1.64c1.13-1.84-.44-2.2,1.15-4.1s4.43,2.71.91,6.79C503.93,945.17,502,945.18,501.06,944.08Z"/><path class="cls-13" d="M429.72,939c2.28-2.71,4-1.43,4.42.43s-.26,4.66,1.75,6.43c2.37,2.08,3.12-1.16,5.5,1.85s-4.46,9.34-9.55,2.65C427.74,945,428.05,941,429.72,939Z"/><path class="cls-14" d="M359.37,894.58c-29.15,2.5-52.15,11.91-51.37,21l8.86,103.08,2.11-.18c7,6.3,27.68,9.57,51.69,7.5s43.85-8.81,49.65-16.21l2.11-.18-8.86-103.08C412.78,897.42,388.51,892.07,359.37,894.58Z"/><ellipse class="cls-11" cx="360.78" cy="911.06" rx="52.97" ry="16.94" transform="translate(-76.69 34.24) rotate(-4.91)"/><ellipse class="cls-15" cx="360.13" cy="903.52" rx="52.97" ry="16.94" transform="translate(-76.05 34.16) rotate(-4.91)"/><path class="cls-13" d="M313.76,982.58c.8,9.32,25.24,16.64,54.38,14.13s52-13.88,51.18-23.2l3.17,36.92s-19,12.74-51.83,15.56c-28.56,2.46-50.42-3.41-53.8-7.32Z"/><path class="cls-13" d="M307.9,914.39c.8,9.32,25.08,14.85,54.23,12.34s52.13-12.09,51.33-21.41l2.16,25.13s-19,12.74-51.83,15.56c-28.56,2.46-50.42-3.41-53.8-7.32Z"/><path class="cls-16" d="M331.64,965.07c2.23-4.56,6.93,5.34,16.64,5S367,963.78,371,960s13.23,5.18,8.6,10.08-22.31,9.09-30.28,8.55S328.86,970.74,331.64,965.07Z"/><path class="cls-15" d="M350.77,972.08c2.24-4.56,6.93,5.34,16.64,5s18.76-6.33,22.73-10.08,13.22,5.18,8.59,10.08-22.31,9.09-30.28,8.55S348,977.74,350.77,972.08Z"/><path class="cls-6" d="M376.69,960.29s3.1,1.61,7.61-1.44,11.68-4.31,3.24,1.86c-3.78,2.12-5.41,1.48-6.67,5.44C380.87,966.15,375.18,965.69,376.69,960.29Z"/><path class="cls-6" d="M395.53,967.65s3.1,1.61,7.61-1.44,11.69-4.31,3.24,1.86c-3.77,2.12-5.41,1.48-6.67,5.44C399.71,973.51,394,973.06,395.53,967.65Z"/><path class="cls-4" d="M272.64,1040.36S250.42,967,241.53,958.12s-22.23-4.45-40,0-48.69-7.63-33.23-44.44,28.09-24.16,28.09-24.16-33.71-14-14-44.95,28.1-25.28,43.55-21.07l15.45,4.22s1.4-29.5,23.88-29.5,50.57,5.62,49.16,29.5L313,851.6s-2.81-19.67,26.69-7,25.28,53.38,0,59c0,0,14,18.26-9.84,22.47,0,0,14.05,28.1-14,19.67-5.49-1.34,10,47.53,18.08,74,1.15,5.18-1.72,5.18-3.45,8s.58,4-1.72,6.9-19,9.2-25.3,10.35-7.48-3.45-10.93-2.87S276.46,1052.59,272.64,1040.36Z"/><path class="cls-6" d="M292.46,1042.12s-20.13-69.56-30.3-79.71c-3.25-3.25-14.6-14.11-17.7,0h0s15.52,32.92,25.33,68.75c3.68,11.26,3.56,16.21,11.75,15.12C286.64,1045.6,283.13,1044.64,292.46,1042.12Z"/><path class="cls-17" d="M330.32,1028.34s-19.48-41.95-20.09-50.86"/><path class="cls-17" d="M330.84,1026.57s-19.48-41.95-20.09-50.86"/><path class="cls-17" d="M268.13,916.89s9.38,6.57,16.7-1.2,5.66-12.77,5.66-12.77,6.4,5.9,8.84,3.57.43-10.11.43-10.11,9.29,1.6,8.11-7.75"/><path class="cls-17" d="M217.65,884.81s1.43,11.22,8.25,10.66,8.26-5.32,8.26-5.32.36,8.69,2.51,8.69,4.66-7,4.66-7,3.59,7.58,7.18,0"/><path class="cls-6" d="M197.7,958.79s21.89-9.26,18.16-19c0,0,5.8,7.25,10.35,3.11l4.56-4.14s4.14,11.53,9.52,8,6.21-8,6.21-8-1.24,9.25,5.38,10,10.28-2,10.28-2,4.22,6.87,6.7,4l2.48-2.9s8.75,8.33-26.88,14.52C244.46,962.41,242.46,944.85,197.7,958.79Z"/><path class="cls-6" d="M286.17,935.82s13.24,4.28,19.08-2.34c0,0-4.28,4.37,0,5.3l4.28.93s-4.64,11.22,6.25,6c0,0-4.48,5,0,16.7,0,3.78-2.75-7.94-7.81-11.81s1.19.37-7,0S285.39,944.38,286.17,935.82Z"/><path class="cls-6" d="M203.17,821.83S238,840.48,243,833.37s-1.15-12.63.54-17-2.71,4.67-2.23,11.33C241.33,827.72,210.65,816.42,203.17,821.83Z"/><path class="cls-6" d="M360.19,876.8s-3.86,15.64-21.65,22-.71,6.77-1.85,12.47-8,13.29-12.15,13.29,10.42,8,5.78,12.15-3.94,8-14.54,9c0,0,8.41,4.1,13.56.72s5.1-9.82.48-20.39c0,0,8.13-.62,11.75-5.44s2.77-10.14-1.91-17c0,0,7.58-2,12.62-7.17S361,880.15,360.19,876.8Z"/><path class="cls-6" d="M184.08,881s7.77.29,12,5,2.13,6.87-7.81,10.89-22.93,63.41-.47,58.94,23-1.89,23-1.89-12.55,9.71-30.9,2.13-18.6-25.57-11.6-42.38,13-25.66,23.38-26.2Z"/><path class="cls-6" d="M262.16,946.82s2.13.17,15.15-13.34,17.41-12.23,27.94,0,25.07,3.27,25.07,3.27L308,950.6Z"/><path class="cls-6" d="M268.13,955.4s6.4-4.71,9.18-2.36,7,6.69,8.81,2.36,1.83-4.52,10.12-4.8,3-13.39,3-13.39l-37.11,9.61"/><path class="cls-6" d="M315.78,945.71s2.65,1.76,7.46,0,7.08-9,7.08-9Z"/><polygon class="cls-18" points="215.48 982.5 422.74 995.61 542.41 970.87 574.82 1008.7 543.93 1019.32 544.67 1176.88 424.94 1199.62 215.48 1192.4 215.48 1041.63 200.26 1039.41 215.48 982.5"/><polyline class="cls-19" points="200.97 1040.58 403.56 1053.04 421.97 996.83 458.8 1039.4 574.11 1009.75"/><polyline class="cls-19" points="215.48 982.5 421.97 996.83 424.94 1199.62"/><path class="cls-20" d="M301,1114.49s4.49-12.22,14.83-9c9.73,3.07-14.86,30.77-14.86,30.77s-18.58-19.92-14.8-30.94S301,1114.49,301,1114.49Z"/><path class="cls-1" d="M488.78,1104.66s2.59-15.11,9-15.09c10.2,0-7.72,36.28-7.72,36.28s-15.88-18.14-17.9-26.49C469.46,1088,488.78,1104.66,488.78,1104.66Z"/></svg>