<svg id="Layer_1" data-name="Layer 1" xmlns="http://www.w3.org/2000/svg" viewBox="0 0 800 1200"><defs><style>.cls-1{fill:#e5906a;}.cls-2{fill:#c6efa5;}.cls-12,.cls-3,.cls-5,.cls-6,.cls-8{fill:none;stroke-miterlimit:10;}.cls-3,.cls-8{stroke:#6bad63;}.cls-3{stroke-width:1.41px;}.cls-4{fill:#6bad63;}.cls-5,.cls-6{stroke:#c6efa5;}.cls-5{stroke-width:2.91px;}.cls-6{stroke-width:2.13px;}.cls-7{fill:#6c8c79;}.cls-12,.cls-8{stroke-width:1.13px;}.cls-9{fill:#f4d556;}.cls-10{fill:#ffe36e;}.cls-11{fill:#ffac83;}.cls-12{stroke:#fff;}.cls-13{fill:#fff;}.cls-14{fill:#efefef;}</style></defs><polygon class="cls-1" points="215.48 982.5 423.46 957.83 542.41 969.74 422.04 994.04 215.48 982.5"/><path class="cls-2" d="M519,987.17S698.53,864.85,682.79,863.52a190.69,190.69,0,0,0-31.55.32s83.86-73.47,71-75.74S685,800.73,704.31,779s82.15-83.62,66.3-82.16c-8.12.74-10.35-2.15-9.36-6.92,2.14-10.38,18.33-30.34,24.66-40,30.18-46.16-10-17.65-16.78-8.42S742.41,668,733.49,669.82s2.79-14.94,1.2-26.71c-1.05-7.83-12.59-4.22-70.69,107.38,0,0-15.16,17.6-16.78-18.92S587.49,819.24,581.59,831s-12.21-35.54-20.37-27-55.89,145.5-71.62,168.48-89.74,99.29-89.74,99.29l11.23,13.13S483.29,1006,519,987.17Z"/><path class="cls-3" d="M494.35,988.87S580.64,899,640.61,821.4,738.18,688,776.89,645.23"/><circle class="cls-3" cx="622.09" cy="881.53" r="4.62"/><circle class="cls-3" cx="553.67" cy="870.64" r="4.62"/><circle class="cls-3" cx="612.09" cy="824.48" r="4.62"/><circle class="cls-3" cx="557.29" cy="943.98" r="4.62"/><circle class="cls-3" cx="665.92" cy="814.78" r="4.62"/><circle class="cls-3" cx="696.34" cy="723.26" r="4.62"/><circle class="cls-3" cx="745.38" cy="708.02" r="4.62"/><path class="cls-4" d="M349.49,1078.3s7.12-94.36-7.89-143.19-22.36-143.57,11.71-116.43,32,52.45,30.19-17.73-23.34-95.23-2.32-149.2,53.25,128.14,64.67,49.41,14.79-145.09,49.71-179.58,43.8,71.65,38.92,126.6S495.92,761,524,736.51s43.14-52.85,70.13-55.21-9.48,72.2-55.26,135.76-15.74,58.28,15,48.83,47.64,39.05-115.34,185Z"/><path class="cls-5" d="M387.36,1053s74-127.41,113.59-464.21"/><line class="cls-6" x1="281.22" y1="554.44" x2="282.42" y2="591.15"/><path class="cls-7" d="M294.41,948.72C271.09,858.59-53,419.77,12.21,457.83s139,144.89,139,144.89S89.34,481,58.53,393.08s-22.59-98.88,11.75-69,55.25,72.3,73,104.19,1.08-6,7-113.18,19.37-178.66,45.38-49.82S252,586.59,252,586.59s-14.64-148.53-10.49-232.38,27.47-82.07,38.15-45.28S303.45,518.6,303.45,518.6s13.75-41,35.06-65.72,38.73,25.39,6.65,464.52C349.1,989.84,361,1040.54,361,1040.54l-31.54,9.16Z"/><line class="cls-6" x1="330.8" y1="665.05" x2="326.61" y2="701.54"/><line class="cls-6" x1="343.21" y1="471.82" x2="339.02" y2="508.32"/><line class="cls-6" x1="336.09" y1="557.93" x2="331.89" y2="594.43"/><line class="cls-6" x1="319.24" y1="772.9" x2="319.51" y2="809.63"/><line class="cls-6" x1="317.66" y1="892.17" x2="323.66" y2="928.42"/><line class="cls-6" x1="331.24" y1="974.7" x2="337.24" y2="1010.94"/><line class="cls-6" x1="127.2" y1="617.7" x2="150.29" y2="646.27"/><line class="cls-6" x1="64.92" y1="531.63" x2="88.01" y2="560.21"/><line class="cls-6" x1="191.7" y1="717.61" x2="211.14" y2="748.77"/><line class="cls-6" x1="256.92" y1="817.48" x2="271.27" y2="851.3"/><line class="cls-6" x1="82.33" y1="383.94" x2="100.96" y2="415.6"/><line class="cls-6" x1="137.22" y1="502.6" x2="151.86" y2="536.29"/><line class="cls-6" x1="200.54" y1="631.68" x2="215.16" y2="665.38"/><line class="cls-6" x1="266.94" y1="750.39" x2="275.63" y2="786.09"/><line class="cls-6" x1="171.05" y1="269.59" x2="174.7" y2="306.15"/><line class="cls-6" x1="191.91" y1="411.85" x2="195.55" y2="448.4"/><line class="cls-6" x1="210.14" y1="528.11" x2="217.26" y2="564.15"/><line class="cls-6" x1="255.42" y1="648.83" x2="262.54" y2="684.87"/><line class="cls-6" x1="271.1" y1="452.33" x2="272.3" y2="489.05"/><line class="cls-6" x1="260.98" y1="350.23" x2="262.17" y2="386.95"/><path class="cls-2" d="M272.64,1040.36S250.42,967,241.53,958.12s-22.23-4.45-40,0-48.69-7.63-33.23-44.44,28.09-24.16,28.09-24.16-33.71-14-14-44.95,28.1-25.28,43.55-21.07l15.45,4.22s1.4-29.5,23.88-29.5,50.57,5.62,49.16,29.5L313,851.6s-2.81-19.67,26.69-7,25.28,53.38,0,59c0,0,14,18.26-9.84,22.47,0,0,14.05,28.1-14,19.67-5.49-1.34,10,47.53,18.08,74,1.15,5.18-1.72,5.18-3.45,8s.58,4-1.72,6.9-19,9.2-25.3,10.35-7.48-3.45-10.93-2.87S276.46,1052.59,272.64,1040.36Z"/><path class="cls-4" d="M292.46,1042.12s-20.13-69.56-30.3-79.71c-3.25-3.25-14.6-14.11-17.7,0h0s15.52,32.92,25.33,68.75c3.68,11.26,3.56,16.21,11.75,15.12C286.64,1045.6,283.13,1044.64,292.46,1042.12Z"/><path class="cls-8" d="M330.32,1028.34s-19.48-41.95-20.09-50.86"/><path class="cls-8" d="M330.84,1026.57s-19.48-41.95-20.09-50.86"/><path class="cls-8" d="M268.13,916.89s9.38,6.57,16.7-1.2,5.66-12.77,5.66-12.77,6.4,5.9,8.84,3.57.43-10.11.43-10.11,9.29,1.6,8.11-7.75"/><path class="cls-8" d="M217.65,884.81s1.43,11.22,8.25,10.66,8.26-5.32,8.26-5.32.36,8.69,2.51,8.69,4.66-7,4.66-7,3.59,7.58,7.18,0"/><path class="cls-4" d="M197.7,958.79s21.89-9.26,18.16-19c0,0,5.8,7.25,10.35,3.11l4.56-4.14s4.14,11.53,9.52,8,6.21-8,6.21-8-1.24,9.25,5.38,10,10.28-2,10.28-2,4.22,6.87,6.7,4l2.48-2.9s8.75,8.33-26.88,14.52C244.46,962.41,242.46,944.85,197.7,958.79Z"/><path class="cls-4" d="M286.17,935.82s13.24,4.28,19.08-2.34c0,0-4.28,4.37,0,5.3l4.28.93s-4.64,11.22,6.25,6c0,0-4.48,5,0,16.7,0,3.78-2.75-7.94-7.81-11.81s1.19.37-7,0S285.39,944.38,286.17,935.82Z"/><path class="cls-4" d="M203.17,821.83S238,840.48,243,833.37s-1.15-12.63.54-17-2.71,4.67-2.23,11.33C241.33,827.72,210.65,816.42,203.17,821.83Z"/><path class="cls-4" d="M360.19,876.8s-3.86,15.64-21.65,22-.71,6.77-1.85,12.47-8,13.29-12.15,13.29,10.42,8,5.78,12.15-3.94,8-14.54,9c0,0,8.41,4.1,13.56.72s5.1-9.82.48-20.39c0,0,8.13-.62,11.75-5.44s2.77-10.14-1.91-17c0,0,7.58-2,12.62-7.17S361,880.15,360.19,876.8Z"/><path class="cls-4" d="M184.08,881s7.77.29,12,5,2.13,6.87-7.81,10.89-22.93,63.41-.47,58.94,23-1.89,23-1.89-12.55,9.71-30.9,2.13-18.6-25.57-11.6-42.38,13-25.66,23.38-26.2Z"/><path class="cls-4" d="M262.16,946.82s2.13.17,15.15-13.34,17.41-12.23,27.94,0,25.07,3.27,25.07,3.27L308,950.6Z"/><path class="cls-4" d="M268.13,955.4s6.4-4.71,9.18-2.36,7,6.69,8.81,2.36,1.83-4.52,10.12-4.8,3-13.39,3-13.39l-37.11,9.61"/><path class="cls-4" d="M315.78,945.71s2.65,1.76,7.46,0,7.08-9,7.08-9Z"/><path class="cls-9" d="M415.57,963.88c0-16.89-7.8-31.29-18.76-37a4.55,4.55,0,0,0,0-.53c0-3.63-4.47-6.57-10-6.57s-9.85,2.86-10,6.42c-9.29.83-23.93,18.64-23.93,36.06,0,15.21,5.46,28,12.8,31.37a21.06,21.06,0,0,0,40.36-.6C411.92,985.81,415.57,975.42,415.57,963.88Z"/><path class="cls-2" d="M386.86,919.8c-.26-9.39,10.13-11.39,16.24-13.72C403.1,906.08,387.21,932.35,386.86,919.8Z"/><path class="cls-2" d="M382.14,924.13c-5,.14-6.08-5.41-7.33-8.67a17.17,17.17,0,0,1,6.39,2.62C384.23,920.39,385.79,924,382.14,924.13Z"/><path class="cls-10" d="M465.71,989.13c0-16.88-7.79-31.29-18.75-37a4.73,4.73,0,0,0,0-.53c0-3.63-4.48-6.58-10-6.58s-9.86,2.86-10,6.43c-9.3.83-23.93,18.64-23.93,36,0,15.21,5.45,28,12.79,31.38a21.06,21.06,0,0,0,40.37-.61C462.07,1011.07,465.71,1000.68,465.71,989.13Z"/><path class="cls-2" d="M437,945.05c-.26-9.38,10.12-11.38,16.23-13.71C453.24,931.34,437.35,957.6,437,945.05Z"/><path class="cls-2" d="M432.29,949.39c-5,.14-6.09-5.41-7.33-8.68a17.17,17.17,0,0,1,6.39,2.62C434.37,945.64,435.93,949.29,432.29,949.39Z"/><polygon class="cls-11" points="215.48 982.5 422.74 995.61 542.41 970.87 574.82 1008.7 543.93 1019.32 544.67 1176.88 424.94 1199.62 215.48 1192.4 215.48 1041.63 200.26 1039.41 215.48 982.5"/><polyline class="cls-12" points="200.97 1040.58 403.56 1053.04 421.97 996.83 458.8 1039.4 574.11 1009.75"/><polyline class="cls-12" points="215.48 982.5 421.97 996.83 424.94 1199.62"/><path class="cls-13" d="M301,1114.49s4.49-12.22,14.83-9c9.73,3.07-14.86,30.77-14.86,30.77s-18.58-19.92-14.8-30.94S301,1114.49,301,1114.49Z"/><path class="cls-14" d="M488.78,1104.66s2.59-15.11,9-15.09c10.2,0-7.72,36.28-7.72,36.28s-15.88-18.14-17.9-26.49C469.46,1088,488.78,1104.66,488.78,1104.66Z"/></svg>